<mxfile host="app.diagrams.net" modified="2023-10-06T08:23:24.366Z" agent="Mozilla/5.0 (Windows NT 10.0; Win64; x64) AppleWebKit/537.36 (KHTML, like Gecko) Chrome/117.0.0.0 Safari/537.36 Edg/117.0.2045.47" etag="6ptvIw9Cv9uavgCde749" version="22.0.3" type="github">
  <diagram name="第 1 页" id="kl5AN0TaKjLK0p1j3TNU">
    <mxGraphModel dx="794" dy="501" grid="0" gridSize="10" guides="1" tooltips="1" connect="1" arrows="1" fold="1" page="1" pageScale="1" pageWidth="827" pageHeight="1169" math="0" shadow="0">
      <root>
        <mxCell id="0" />
        <mxCell id="1" parent="0" />
        <mxCell id="yHkN_i2ZLOMxExtQB8De-1" value="parent" style="ellipse;whiteSpace=wrap;html=1;aspect=fixed;" vertex="1" parent="1">
          <mxGeometry x="378" y="65" width="80" height="80" as="geometry" />
        </mxCell>
        <mxCell id="yHkN_i2ZLOMxExtQB8De-2" value="child0" style="ellipse;whiteSpace=wrap;html=1;aspect=fixed;" vertex="1" parent="1">
          <mxGeometry x="266" y="186" width="80" height="80" as="geometry" />
        </mxCell>
        <mxCell id="yHkN_i2ZLOMxExtQB8De-3" value="child2" style="ellipse;whiteSpace=wrap;html=1;aspect=fixed;" vertex="1" parent="1">
          <mxGeometry x="501" y="338" width="80" height="80" as="geometry" />
        </mxCell>
        <mxCell id="yHkN_i2ZLOMxExtQB8De-4" value="child1" style="ellipse;whiteSpace=wrap;html=1;aspect=fixed;" vertex="1" parent="1">
          <mxGeometry x="151" y="324" width="80" height="80" as="geometry" />
        </mxCell>
        <mxCell id="yHkN_i2ZLOMxExtQB8De-8" value="" style="endArrow=classic;html=1;rounded=0;entryX=1;entryY=0;entryDx=0;entryDy=0;exitX=0;exitY=1;exitDx=0;exitDy=0;" edge="1" parent="1" source="yHkN_i2ZLOMxExtQB8De-1" target="yHkN_i2ZLOMxExtQB8De-2">
          <mxGeometry width="50" height="50" relative="1" as="geometry">
            <mxPoint x="383" y="287" as="sourcePoint" />
            <mxPoint x="433" y="237" as="targetPoint" />
          </mxGeometry>
        </mxCell>
        <mxCell id="yHkN_i2ZLOMxExtQB8De-9" value="" style="endArrow=classic;html=1;rounded=0;exitX=0;exitY=1;exitDx=0;exitDy=0;" edge="1" parent="1" source="yHkN_i2ZLOMxExtQB8De-2" target="yHkN_i2ZLOMxExtQB8De-4">
          <mxGeometry width="50" height="50" relative="1" as="geometry">
            <mxPoint x="334" y="301" as="sourcePoint" />
            <mxPoint x="279" y="369" as="targetPoint" />
          </mxGeometry>
        </mxCell>
        <mxCell id="yHkN_i2ZLOMxExtQB8De-10" value="" style="endArrow=classic;html=1;rounded=0;exitX=1;exitY=1;exitDx=0;exitDy=0;entryX=0;entryY=0;entryDx=0;entryDy=0;" edge="1" parent="1" source="yHkN_i2ZLOMxExtQB8De-1" target="yHkN_i2ZLOMxExtQB8De-3">
          <mxGeometry width="50" height="50" relative="1" as="geometry">
            <mxPoint x="406" y="266" as="sourcePoint" />
            <mxPoint x="360" y="342" as="targetPoint" />
          </mxGeometry>
        </mxCell>
        <mxCell id="yHkN_i2ZLOMxExtQB8De-11" value="" style="shape=flexArrow;endArrow=classic;html=1;rounded=0;" edge="1" parent="1">
          <mxGeometry width="50" height="50" relative="1" as="geometry">
            <mxPoint x="633" y="59" as="sourcePoint" />
            <mxPoint x="638" y="410" as="targetPoint" />
          </mxGeometry>
        </mxCell>
        <mxCell id="yHkN_i2ZLOMxExtQB8De-12" value="LOOP0" style="text;html=1;align=center;verticalAlign=middle;resizable=0;points=[];autosize=1;strokeColor=none;fillColor=none;" vertex="1" parent="1">
          <mxGeometry x="658" y="218" width="58" height="26" as="geometry" />
        </mxCell>
        <mxCell id="yHkN_i2ZLOMxExtQB8De-13" value="LOOP1" style="text;html=1;align=center;verticalAlign=middle;resizable=0;points=[];autosize=1;strokeColor=none;fillColor=none;" vertex="1" parent="1">
          <mxGeometry x="658" y="382" width="58" height="26" as="geometry" />
        </mxCell>
      </root>
    </mxGraphModel>
  </diagram>
</mxfile>
